<!--
Render the following with wavedrom-bitfield:

  {
    "reg": [
      {"name": ".third",  "bits": 6},
      {"name": "",        "bits": 1, "type": 1},
      {"name": ".second", "bits": 7},
      {"name": ".first",  "bits": 3},
      {"name": "",        "bits": 4, "type": 1},
    ],
    "config": {
      "lanes": 3,
      "compact": true,
      "vflip": true,
      "hspace": 289.4375
    }
  }

Then add 14 to height and viewBox.height.
-->
<svg xmlns="http://www.w3.org/2000/svg" xmlns:xlink="http://www.w3.org/1999/xlink" width="289" height="132" viewBox="0 0 289 132" class="WaveDrom"><g transform="translate(0.5,0.5)" text-anchor="middle" font-size="14" font-family="sans-serif" font-weight="normal"><g transform="translate(4,83)"><g stroke="black" stroke-width="1" stroke-linecap="round"><line x2="280"></line><line x1="280" x2="280" y2="31"></line><line x2="280" y1="31" y2="31"></line><line y2="31"></line><line x1="40" x2="40" y2="3"></line><line x1="40" x2="40" y1="31" y2="28"></line><line x1="80" x2="80" y2="3"></line><line x1="80" x2="80" y1="31" y2="28"></line><line x1="120" x2="120" y2="3"></line><line x1="120" x2="120" y1="31" y2="28"></line><line x1="160" x2="160" y2="3"></line><line x1="160" x2="160" y1="31" y2="28"></line><line x1="200" x2="200" y2="3"></line><line x1="200" x2="200" y1="31" y2="28"></line><line x1="240" x2="240" y2="31"></line></g><g><g><rect x="240" width="40" height="31" field="" style="fill-opacity:0.1"></rect></g><g transform="translate(20,-11)"></g><g transform="translate(20,15)"><g transform="translate(100)"><text y="6"><tspan>.third</tspan></text></g><g transform="translate(240)"><text y="6"><tspan></tspan></text></g></g><g transform="translate(20,39)"></g></g></g><g transform="translate(4,52)"><g stroke="black" stroke-width="1" stroke-linecap="round"><line x2="280"></line><line x1="280" x2="280" y2="31"></line><line x2="280" y1="31" y2="31"></line><line y2="31"></line><line x1="40" x2="40" y2="3"></line><line x1="40" x2="40" y1="31" y2="28"></line><line x1="80" x2="80" y2="3"></line><line x1="80" x2="80" y1="31" y2="28"></line><line x1="120" x2="120" y2="3"></line><line x1="120" x2="120" y1="31" y2="28"></line><line x1="160" x2="160" y2="3"></line><line x1="160" x2="160" y1="31" y2="28"></line><line x1="200" x2="200" y2="3"></line><line x1="200" x2="200" y1="31" y2="28"></line><line x1="240" x2="240" y2="3"></line><line x1="240" x2="240" y1="31" y2="28"></line></g><g><g></g><g transform="translate(20,-11)"></g><g transform="translate(20,15)"><g transform="translate(120)"><text y="6"><tspan>.second</tspan></text></g></g><g transform="translate(20,39)"></g></g></g><g transform="translate(4,21)"><g stroke="black" stroke-width="1" stroke-linecap="round"><line x2="280"></line><line x1="280" x2="280" y2="31"></line><line x2="280" y1="31" y2="31"></line><line y2="31"></line><line x1="40" x2="40" y2="3"></line><line x1="40" x2="40" y1="31" y2="28"></line><line x1="80" x2="80" y2="3"></line><line x1="80" x2="80" y1="31" y2="28"></line><line x1="120" x2="120" y2="31"></line><line x1="160" x2="160" y2="3"></line><line x1="160" x2="160" y1="31" y2="28"></line><line x1="200" x2="200" y2="3"></line><line x1="200" x2="200" y1="31" y2="28"></line><line x1="240" x2="240" y2="3"></line><line x1="240" x2="240" y1="31" y2="28"></line></g><g><g><rect x="120" width="160" height="31" field="" style="fill-opacity:0.1"></rect></g><g transform="translate(20,-11)"></g><g transform="translate(20,15)"><g transform="translate(40)"><text y="6"><tspan>.first</tspan></text></g><g transform="translate(180)"><text y="6"><tspan></tspan></text></g></g><g transform="translate(20,39)"></g></g></g><g transform="translate(4,-3)"><g transform="translate(20,11)"><text y="6">0</text></g><g transform="translate(100,11)"><text y="6">2</text></g><g transform="translate(140,11)"><text y="6">3</text></g><g transform="translate(220,11)"><text y="6">5</text></g><g transform="translate(260,11)"><text y="6">6</text></g></g></g></svg>
